<svg viewBox="0 0 157 157" fill="none" xmlns="http://www.w3.org/2000/svg">
<path d="M6.60779 62.8056C8.78569 64.7242 10.9921 66.6468 13.1997 68.5419C15.9027 70.8999 18.6301 73.2293 21.3306 75.5587C22.6088 76.6363 24.0607 77.1602 25.5695 77.0146C27.1083 76.8976 28.5343 76.1085 29.7246 74.7138C29.9864 74.394 30.2185 74.0443 30.479 73.6921L34.6898 68.1012L34.6911 150.129C34.6911 154.816 36.869 157 41.5412 157H115.648C116.112 157 116.606 157 117.187 156.971C119.943 156.739 122.152 154.555 122.385 151.698C122.414 151.148 122.414 150.536 122.414 149.951V68.0759C123.952 70.1427 125.463 72.181 126.973 74.1906C128.193 75.8505 129.645 76.8111 131.296 76.9892C132.952 77.1907 134.549 76.6084 136.177 75.2682L142.533 69.7099C142.969 69.3291 143.404 68.9495 143.84 68.5712C146.046 66.65 148.224 64.7274 150.432 62.8349C151.825 61.6117 153.251 60.3885 154.642 59.1668C157.401 56.8049 157.75 53.7217 155.63 50.7228L146.109 37.3874C140.617 29.6997 135.132 22.0137 129.557 14.2715C128.772 13.2771 127.699 12.4036 126.624 11.8797C126.362 11.7627 101.709 0.29134 100.574 0.0870197C100.403 0.0571227 100.228 0.0285251 100.054 0.0285251H98.5734C98.5124 0.0285251 98.4865 0.0571225 98.3958 0.0571225C98.1948 0.0870195 98.0211 0.115618 97.8176 0.174112C97.6439 0.232606 97.4688 0.261204 97.3236 0.348296C97.146 0.435389 97.0307 0.552377 96.8596 0.63947C96.7144 0.756458 96.5394 0.873447 96.424 1.04765C96.3955 1.07624 96.3371 1.10614 96.2788 1.16463C95.9016 1.6599 95.3208 2.18374 94.508 2.70499C93.3179 3.52001 91.8361 4.22196 90.1522 4.80431C87.5374 5.70641 84.4599 6.28876 81.1787 6.49285C80.3076 6.55134 79.4066 6.57994 78.5069 6.57994C77.5774 6.57994 76.6777 6.55134 75.8351 6.49285C72.3504 6.28876 69.3311 5.64791 66.8915 4.80431C63.9008 3.75661 61.7814 2.38783 60.7064 1.07762C60.6779 1.04902 60.6196 1.01652 60.5898 0.990523C60.4446 0.816338 60.2708 0.699349 60.1257 0.582347C59.9805 0.495255 59.8353 0.378265 59.6901 0.288574C59.5151 0.232679 59.3414 0.202783 59.1676 0.145587C58.9939 0.0870925 58.7904 0.0285974 58.5869 0.0285974C58.5285 0.0285974 58.5026 0 58.4417 0H56.9613C56.7836 0 56.6125 0.028598 56.4388 0.0584947C55.3641 0.23658 30.5659 11.7926 30.2715 11.938C29.2279 12.432 28.2984 13.1898 27.5439 14.1504L26.8179 15.1695C18.2799 27.079 9.77208 39.0172 1.26392 50.9257C-0.681937 53.6333 -0.365634 56.7777 2.10657 58.8719C3.58701 60.1847 5.09728 61.495 6.6074 62.8052L6.60779 62.8056ZM97.7593 7.54254C98.5138 7.04728 99.1529 6.49485 99.7052 5.96967C102.958 7.39695 116.838 13.7442 124.156 17.1824C124.418 17.2993 124.737 17.5606 124.882 17.7621C130.428 25.4198 135.917 33.1098 141.406 40.7648L150.93 54.1002C151.047 54.2458 151.104 54.3914 151.159 54.4785C151.101 54.537 150.986 54.6241 150.869 54.7411C149.595 55.8473 148.314 56.9535 147.036 58.0894L122.065 23.265L96.3655 8.38656C96.8595 8.12399 97.3236 7.8328 97.7591 7.54163L97.7593 7.54254ZM5.99714 54.3333C14.4768 42.3925 23.0108 30.4857 31.5226 18.5472L32.1877 17.6152C32.2745 17.4982 32.5364 17.298 32.7399 17.207C40.1446 13.7416 54.1701 7.30714 57.3358 5.90984C58.2939 6.81195 59.4269 7.6283 60.7335 8.35623L34.9489 23.2647L10.0042 58.0324C8.64036 56.8677 7.27528 55.6732 5.9102 54.4512C5.93872 54.4213 5.96853 54.3927 5.99705 54.3342L5.99714 54.3333Z" fill="#F07300"/>
</svg>
